name analog
datacolumns 19
datarows 19
range 0.2705 0.2795
endheader
time	ground_force_vx	ground_force_vy	ground_force_vz	ground_force_px	ground_force_py	ground_force_pz	l_ground_force_vx	l_ground_force_vy	l_ground_force_vz	l_ground_force_px	l_ground_force_py	l_ground_force_pz	ground_torque_x	ground_torque_y	ground_torque_z	l_ground_torque_x	l_ground_torque_y	l_ground_torque_z
0.2705	-0.0	-0.0	-0.0	-6.518621444702148	5.488043308258057	-73.83936309814453	2.8957087993621826	-12.380840301513672	-716.9331665039062	-0.0	-0.0	-0.0	-0.0	-0.0	-0.0	210065.8125	-22318.001953125	2436.673828125
0.271	-0.0	-0.0	-0.0	-6.773971080780029	4.345508575439453	-69.41178894042969	3.741688966751098	-12.661534309387209	-720.7112426757812	-0.0	-0.0	-0.0	-0.0	-0.0	-0.0	211225.03125	-22629.607421875	2655.430908203125
0.2715	-0.0	-0.0	-0.0	-6.417344093322754	4.099998474121094	-66.08433532714844	4.394229412078857	-12.500550270080566	-723.5283203125	-0.0	-0.0	-0.0	-0.0	-0.0	-0.0	212130.59375	-23211.88671875	3114.674072265625
0.272	-0.0	-0.0	-0.0	-6.3655619621276855	3.565216064453125	-62.803443908691406	5.7090325355529785	-12.630001068115234	-728.4932250976562	-0.0	-0.0	-0.0	-0.0	-0.0	-0.0	213046.46875	-23455.892578125	3490.661376953125
0.2725	-0.0	-0.0	-0.0	-6.223555564880371	3.17718243598938	-58.0873908996582	6.465844631195068	-12.427694320678713	-731.3092651367188	-0.0	-0.0	-0.0	-0.0	-0.0	-0.0	214182.859375	-23502.48046875	3716.611083984375
0.273	-0.0	-0.0	-0.0	-6.717069149017334	2.957021474838257	-52.91470718383789	7.73900032043457	-12.796459197998049	-734.3491821289062	-0.0	-0.0	-0.0	-0.0	-0.0	-0.0	215226.484375	-23859.046875	4225.044921875
0.2735	-0.0	-0.0	-0.0	-6.6486921310424805	2.390830039978028	-50.02720260620117	8.798036575317383	-13.185853004455566	-740.0164184570312	-0.0	-0.0	-0.0	-0.0	-0.0	-0.0	216156.859375	-24435.39453125	4478.7109375
0.274	-0.0	-0.0	-0.0	-6.963212013244629	2.401733160018921	-45.72731399536133	9.84689712524414	-13.643173217773438	-744.5557861328125	-0.0	-0.0	-0.0	-0.0	-0.0	-0.0	217171.65625	-25026.4375	5021.98681640625
0.2745	-0.0	-0.0	-0.0	-6.617207050323486	1.6733005046844482	-41.719032287597656	10.885090827941896	-13.409371376037598	-746.3211059570312	-0.0	-0.0	-0.0	-0.0	-0.0	-0.0	218328.671875	-25269.69140625	5404.81298828125
0.275	-0.0	-0.0	-0.0	-7.536077976226807	1.05397367477417	-37.06639099121094	12.43507957458496	-13.466713905334473	-751.374267578125	-0.0	-0.0	-0.0	-0.0	-0.0	-0.0	219437.96875	-25511.314453125	5732.15673828125
0.2755	-0.0	-0.0	-0.0	-7.446980476379394	0.8177271485328674	-32.30765914916992	13.129196166992188	-13.720788955688477	-755.276123046875	-0.0	-0.0	-0.0	-0.0	-0.0	-0.0	220476.140625	-25841.39453125	6221.21826171875
0.276	-0.0	-0.0	-0.0	-8.044475555419922	0.0349964350461959	-30.587980270385746	13.541760444641112	-13.305721282958984	-758.2963256835938	-0.0	-0.0	-0.0	-0.0	-0.0	-0.0	221367.859375	-26177.009765625	6434.4091796875
0.2765	-0.0	-0.0	-0.0	-7.768920421600342	-0.321745365858078	-26.13531494140625	14.367053985595703	-13.248252868652344	-762.6688842773438	-0.0	-0.0	-0.0	-0.0	-0.0	-0.0	222610.515625	-26140.38671875	6665.7451171875
0.277	-0.0	-0.0	-0.0	-8.517815589904785	-0.1818343847990036	-24.23280906677246	14.845561027526855	-13.014012336730955	-766.7369384765625	-0.0	-0.0	-0.0	-0.0	-0.0	-0.0	223447.078125	-26403.70703125	6948.63818359375
0.2775	-0.0	-0.0	-0.0	-7.157014846801758	-0.6634566187858582	-16.6500301361084	15.154151916503906	-13.282529830932615	-768.0873413085938	-0.0	-0.0	-0.0	-0.0	-0.0	-0.0	224453.078125	-26851.630859375	7210.61865234375
0.278	-0.0	-0.0	-0.0	-0.0	-0.0	-0.0	15.75978946685791	-13.248252868652344	-772.6588745117188	-0.0	-0.0	-0.0	-0.0	-0.0	-0.0	225424.34375	-27077.578125	7448.37890625
0.2785	-0.0	-0.0	-0.0	-0.0	-0.0	-0.0	16.396167755126953	-13.589518547058104	-773.4915161132812	-0.0	-0.0	-0.0	-0.0	-0.0	-0.0	226167.390625	-27120.4765625	7719.771484375
0.279	-0.0	-0.0	-0.0	-0.0	-0.0	-0.0	16.839759826660156	-13.982256889343262	-777.6810302734375	-0.0	-0.0	-0.0	-0.0	-0.0	-0.0	226940.984375	-27231.25390625	7829.505859375
0.2795	-0.0	-0.0	-0.0	-0.0	-0.0	-0.0	17.20989227294922	-14.000388145446776	-779.017333984375	-0.0	-0.0	-0.0	-0.0	-0.0	-0.0	227436.9375	-27615.740234375	7963.7470703125
